<?xml version="1.0" encoding="utf-8"?>
<!-- Generator: Adobe Illustrator 23.0.1, SVG Export Plug-In . SVG Version: 6.00 Build 0)  -->
<svg version="1.1" id="Capa_1" xmlns="http://www.w3.org/2000/svg" xmlns:xlink="http://www.w3.org/1999/xlink" x="0px" y="0px"
	 viewBox="0 0 130 130" style="enable-background:new 0 0 130 130;" xml:space="preserve">
<style type="text/css">
	.st0{fill:#FFFFFF;}
</style>
<path class="st0" d="M65,0C29.1,0,0,29.1,0,65s29.1,65,65,65s65-29.1,65-65S100.9,0,65,0z M89.9,34.7c0,1.1-0.9,1.9-1.9,1.9h-8
	c-5.5,0-6.5,2.2-6.5,6.4v8.8h14.2c0.5,0,1,0.2,1.3,0.6c0.4,0.4,0.6,0.9,0.6,1.3v15.1c0,1.1-0.9,1.9-1.9,1.9h-7.4h-6.7v38.3
	c0,1.1-0.9,1.9-1.9,1.9H55.9c-1.1,0-1.9-0.9-1.9-1.9V70.9H42c-1.1,0-1.9-0.9-1.9-1.9V53.9c0-1.1,0.9-1.9,1.9-1.9h12V41.5
	c0-13.8,8.7-22.7,22.1-22.7h12c1.1,0,1.8,0.9,1.8,1.9V34.7z"/>
</svg>
