<?xml version="1.0" encoding="utf-8"?>
<!-- Generator: Adobe Illustrator 23.0.1, SVG Export Plug-In . SVG Version: 6.00 Build 0)  -->
<svg version="1.1" id="Layer_1" xmlns="http://www.w3.org/2000/svg" xmlns:xlink="http://www.w3.org/1999/xlink" x="0px" y="0px"
	 viewBox="0 0 130 130" style="enable-background:new 0 0 130 130;" xml:space="preserve">
<style type="text/css">
	.st0{fill:#FFFFFF;}
</style>
<g id="background">
</g>
<g>
	<path class="st0" d="M65.1,49.8c-5.4,0-10.2,2.5-13.4,6.4H37.1v26.5c0,5.6,4.6,10.2,10.2,10.2h35.5c5.6,0,10.2-4.6,10.3-10.2V56.3
		H78.5C75.3,52.3,70.5,49.8,65.1,49.8z M65,80.8c-8,0-14.4-6.4-14.4-14.4c0-8,6.4-14.4,14.4-14.4s14.4,6.4,14.4,14.4
		C79.4,74.3,73,80.8,65,80.8z"/>
	<path class="st0" d="M78.2,52.5h6.6c1.2,0,2.2-1,2.2-2.2v-6.6c0-1.2-1-2.2-2.2-2.2h-6.6c-1.2,0-2.2,1-2.2,2.2v6.6
		C76,51.5,77,52.5,78.2,52.5z"/>
	<path class="st0" d="M65,0C29.1,0,0,29.1,0,65s29.1,65,65,65s65-29.1,65-65S100.9,0,65,0z M96.2,82.8c0,7.4-6.1,13.5-13.5,13.5
		H47.2c-7.4,0-13.5-6.1-13.5-13.5V47.3c0-7.5,6.1-13.5,13.6-13.5h35.5c7.4,0,13.5,6,13.4,13.5V82.8z"/>
</g>
</svg>
