<?xml version="1.0" encoding="utf-8"?>
<!-- Generator: Adobe Illustrator 23.0.1, SVG Export Plug-In . SVG Version: 6.00 Build 0)  -->
<svg version="1.1" id="Logo_FIXED" xmlns="http://www.w3.org/2000/svg" xmlns:xlink="http://www.w3.org/1999/xlink" x="0px" y="0px"
	 viewBox="0 0 130 130" style="enable-background:new 0 0 130 130;" xml:space="preserve">
<style type="text/css">
	.st0{display:none;fill:none;}
	.st1{fill:#FFFFFF;}
</style>
<title>Twitter_Logo_Blue</title>
<rect x="-135" y="-128.5" class="st0" width="400" height="400"/>
<g id="Layer_2">
</g>
<path class="st1" d="M65,0C29.1,0,0,29.1,0,65s29.1,65,65,65s65-29.1,65-65S100.9,0,65,0z M97.9,51.5c0,0.7,0,1.4,0,2
	c0,20.9-15.9,45-45,45c-8.6,0-17-2.5-24.2-7.1c1.2,0.1,2.5,0.2,3.8,0.2c7.1,0,14-2.4,19.6-6.8c-6.7-0.1-12.7-4.5-14.8-11
	c2.4,0.5,4.8,0.4,7.2-0.3c-7.4-1.5-12.7-8-12.7-15.5c0-0.1,0-0.1,0-0.2c2.2,1.2,4.7,1.9,7.2,2c-7-4.7-9.1-13.9-4.9-21.1
	c8,9.9,19.9,15.9,32.6,16.5c-1.3-5.5,0.5-11.2,4.6-15.1c6.4-6,16.4-5.7,22.3,0.7c3.5-0.7,6.9-2,10-3.8c-1.2,3.7-3.6,6.8-6.9,8.8
	c3.1-0.4,6.2-1.2,9.1-2.5C103.6,46.5,101,49.3,97.9,51.5z"/>
</svg>
