<?xml version="1.0" encoding="utf-8"?>
<!-- Generator: Adobe Illustrator 23.0.1, SVG Export Plug-In . SVG Version: 6.00 Build 0)  -->
<svg version="1.1" id="Layer_1" xmlns="http://www.w3.org/2000/svg" xmlns:xlink="http://www.w3.org/1999/xlink" x="0px" y="0px"
	 viewBox="0 0 130 130" style="enable-background:new 0 0 130 130;" xml:space="preserve">
<style type="text/css">
	.st0{fill:#FFFFFF;}
</style>
<title>Artboard 13</title>
<g>
	<path class="st0" d="M79.1,64.5L57.5,53.4c-0.1,0-0.2-0.1-0.3-0.1c-0.3,0-0.6,0.2-0.6,0.5v22.1c0,0.1,0,0.2,0.1,0.3
		c0.1,0.3,0.5,0.4,0.7,0.2l21.6-11.1v0c0.1-0.1,0.2-0.1,0.2-0.2C79.5,65,79.4,64.7,79.1,64.5z"/>
	<path class="st0" d="M65,0C29.1,0,0,29.1,0,65s29.1,65,65,65s65-29.1,65-65S100.9,0,65,0z M101,77.7c0,6.7-5.5,12.2-12.2,12.2H41.2
		c-6.7,0-12.2-5.5-12.2-12.2V52.3c0-6.7,5.5-12.2,12.2-12.2h47.6c6.7,0,12.2,5.5,12.2,12.2V77.7z"/>
</g>
</svg>
